<?xml version="1.0" encoding="utf-8"?>
<!-- Generator: Adobe Illustrator 23.0.3, SVG Export Plug-In . SVG Version: 6.00 Build 0)  -->
<svg version="1.1" id="Camada_1" xmlns="http://www.w3.org/2000/svg" xmlns:xlink="http://www.w3.org/1999/xlink" x="0px" y="0px"
	 width="372.5px" height="178.2px" viewBox="0 0 372.5 178.2" enable-background="new 0 0 372.5 178.2" xml:space="preserve">
<path fill="#F9EDFF" d="M67.9,159.9c39.8,6.9,52.1-38.7,106.4-44.9c63.2-7.2,90,49.7,133.1,36.8c48.4-14.5,82.6-106.4,55.5-140.2
	c-33.2-41.3-129.1,40.7-303,37.8c-18.6-0.3-47.1-1.7-56.5,14.1C-11.3,88.6,24.2,152.3,67.9,159.9z"/>
<g>
	<g>
		<linearGradient id="SVGID_1_" gradientUnits="userSpaceOnUse" x1="248.3619" y1="180.0503" x2="248.0475" y2="169.0463">
			<stop  offset="0" style="stop-color:#510394"/>
			<stop  offset="0.1211" style="stop-color:#4A0388"/>
			<stop  offset="0.3418" style="stop-color:#380367"/>
			<stop  offset="0.6349" style="stop-color:#1B0433"/>
			<stop  offset="0.8488" style="stop-color:#030408"/>
		</linearGradient>
		<ellipse opacity="0.1" fill="url(#SVGID_1_)" cx="248.2" cy="175.2" rx="113.4" ry="2.9"/>
		<linearGradient id="SVGID_2_" gradientUnits="userSpaceOnUse" x1="92.9884" y1="177.8081" x2="92.8204" y2="171.9269">
			<stop  offset="0" style="stop-color:#510394"/>
			<stop  offset="0.1211" style="stop-color:#4A0388"/>
			<stop  offset="0.3418" style="stop-color:#380367"/>
			<stop  offset="0.6349" style="stop-color:#1B0433"/>
			<stop  offset="0.8488" style="stop-color:#030408"/>
		</linearGradient>
		<path opacity="0.1" fill="url(#SVGID_2_)" d="M123.2,175.2c0,1.2-13.6,2.2-30.3,2.2s-30.3-1-30.3-2.2c0-1.2,13.6-2.2,30.3-2.2
			S123.2,174,123.2,175.2z"/>
	</g>
	<g>
		<path fill="#030408" d="M234.1,173.6h-55.3c-0.5,0.7-0.1,1.4,0.5,1.4h54.3C234.2,175.1,234.7,174.1,234.1,173.6z"/>
		<path fill="#510394" d="M288.2,149.2H124.8c-6.1,0-11.1-5-11.1-11.1V53.3c0-6.1,5-11.1,11.1-11.1h163.4c6.1,0,11.1,5,11.1,11.1
			v84.8C299.3,144.2,294.3,149.2,288.2,149.2z"/>
		<path fill="#FDFFFF" d="M288.5,146.3H124.5c-4.9,0-8.9-4-8.9-8.9V53.1c0-4.9,4-8.9,8.9-8.9h163.9c4.9,0,8.9,4,8.9,8.9v84.3
			C297.4,142.3,293.4,146.3,288.5,146.3z"/>
		<linearGradient id="SVGID_3_" gradientUnits="userSpaceOnUse" x1="206.5088" y1="174.5533" x2="205.2826" y2="140.1955">
			<stop  offset="0" style="stop-color:#510394"/>
			<stop  offset="0.1426" style="stop-color:#4A0388"/>
			<stop  offset="0.4026" style="stop-color:#380367"/>
			<stop  offset="0.7479" style="stop-color:#1B0433"/>
			<stop  offset="1" style="stop-color:#030408"/>
		</linearGradient>
		<path fill="url(#SVGID_3_)" d="M234,173.5c-2-1.5-5.4-4-6.5-5c-1.6-1.4-2.6-19.3-2.6-19.3h-36.9c0,0-1,17.9-2.6,19.3
			c-1.1,1-4.5,3.6-6.5,5c-0.4,0.3-0.2,1,0.3,1h54.3C234.2,174.5,234.4,173.8,234,173.5z"/>
		<g>
			<path fill="#F0DBFC" d="M291.6,67.1h-8.2v-8.9c0-1.8-1.4-3.2-3.2-3.2H145.5c-1.8,0-3.2,1.4-3.2,3.2v73.5c0,1.8,1.4,3.2,3.2,3.2
				h134.7c1.8,0,3.2-1.4,3.2-3.2V68.5h8.2c0.4,0,0.7-0.3,0.7-0.7C292.3,67.4,292,67.1,291.6,67.1z M280.2,133.5H145.5
				c-1,0-1.8-0.8-1.8-1.8V58.2c0-1,0.8-1.8,1.8-1.8h134.7c1,0,1.8,0.8,1.8,1.8v8.9h-92c-0.4,0-0.7,0.3-0.7,0.7
				c0,0.4,0.3,0.7,0.7,0.7h92v63.2C282,132.7,281.2,133.5,280.2,133.5z"/>
			<path fill="#F0DBFC" d="M259.9,64.2c1.2,0,2.2-1,2.2-2.2s-1-2.2-2.2-2.2c-1.2,0-2.2,1-2.2,2.2S258.6,64.2,259.9,64.2z"/>
			<circle fill="#F0DBFC" cx="267.4" cy="61.9" r="2.2"/>
			<path fill="#F0DBFC" d="M274.9,64.2c1.2,0,2.2-1,2.2-2.2s-1-2.2-2.2-2.2c-1.2,0-2.2,1-2.2,2.2S273.7,64.2,274.9,64.2z"/>
			<path fill="#F0DBFC" d="M202.3,76h-48.7c-0.4,0-0.7,0.3-0.7,0.7v48.7c0,0.4,0.3,0.7,0.7,0.7h48.7c0.4,0,0.7-0.3,0.7-0.7V76.7
				C202.9,76.3,202.6,76,202.3,76z M154.3,124.7V77.4h47.3v47.3H154.3z"/>
			<path fill="#F0DBFC" d="M271.9,95.8c-0.4,0-0.7,0.3-0.7,0.7v1h-1c-0.4,0-0.7,0.3-0.7,0.7c0,0.4,0.3,0.7,0.7,0.7h1.7
				c0.4,0,0.7-0.3,0.7-0.7v-1.7C272.6,96.1,272.3,95.8,271.9,95.8z"/>
			<path fill="#F0DBFC" d="M263.6,98.9h3.3c0.4,0,0.7-0.3,0.7-0.7c0-0.4-0.3-0.7-0.7-0.7h-3.3c-0.4,0-0.7,0.3-0.7,0.7
				C262.9,98.6,263.2,98.9,263.6,98.9z"/>
			<path fill="#F0DBFC" d="M253.6,97.5h-3.3c-0.4,0-0.7,0.3-0.7,0.7c0,0.4,0.3,0.7,0.7,0.7h3.3c0.4,0,0.7-0.3,0.7-0.7
				C254.3,97.8,254,97.5,253.6,97.5z"/>
			<path fill="#F0DBFC" d="M257,98.9h3.3c0.4,0,0.7-0.3,0.7-0.7c0-0.4-0.3-0.7-0.7-0.7H257c-0.4,0-0.7,0.3-0.7,0.7
				C256.3,98.6,256.6,98.9,257,98.9z"/>
			<path fill="#F0DBFC" d="M230.5,98.9h3.3c0.4,0,0.7-0.3,0.7-0.7c0-0.4-0.3-0.7-0.7-0.7h-3.3c-0.4,0-0.7,0.3-0.7,0.7
				C229.8,98.6,230.1,98.9,230.5,98.9z"/>
			<path fill="#F0DBFC" d="M240.4,97.5h-3.3c-0.4,0-0.7,0.3-0.7,0.7c0,0.4,0.3,0.7,0.7,0.7h3.3c0.4,0,0.7-0.3,0.7-0.7
				C241.1,97.8,240.8,97.5,240.4,97.5z"/>
			<path fill="#F0DBFC" d="M247.7,98.2c0-0.4-0.3-0.7-0.7-0.7h-3.3c-0.4,0-0.7,0.3-0.7,0.7c0,0.4,0.3,0.7,0.7,0.7h3.3
				C247.4,98.9,247.7,98.6,247.7,98.2z"/>
			<path fill="#F0DBFC" d="M223.9,98.9h3.3c0.4,0,0.7-0.3,0.7-0.7c0-0.4-0.3-0.7-0.7-0.7h-3.3c-0.4,0-0.7,0.3-0.7,0.7
				C223.2,98.6,223.5,98.9,223.9,98.9z"/>
			<path fill="#F0DBFC" d="M220.6,97.5h-3.3c-0.4,0-0.7,0.3-0.7,0.7c0,0.4,0.3,0.7,0.7,0.7h3.3c0.4,0,0.7-0.3,0.7-0.7
				C221.3,97.8,221,97.5,220.6,97.5z"/>
			<path fill="#F0DBFC" d="M212.3,98.9h1.7c0.4,0,0.7-0.3,0.7-0.7c0-0.4-0.3-0.7-0.7-0.7h-1v-1c0-0.4-0.3-0.7-0.7-0.7
				c-0.4,0-0.7,0.3-0.7,0.7v1.7C211.6,98.6,211.9,98.9,212.3,98.9z"/>
			<path fill="#F0DBFC" d="M212.3,86.3c0.4,0,0.7-0.3,0.7-0.7V82c0-0.4-0.3-0.7-0.7-0.7c-0.4,0-0.7,0.3-0.7,0.7v3.6
				C211.6,86,211.9,86.3,212.3,86.3z"/>
			<path fill="#F0DBFC" d="M212.3,93.6c0.4,0,0.7-0.3,0.7-0.7v-3.6c0-0.4-0.3-0.7-0.7-0.7c-0.4,0-0.7,0.3-0.7,0.7v3.6
				C211.6,93.2,211.9,93.6,212.3,93.6z"/>
			<path fill="#F0DBFC" d="M212.3,79.1c0.4,0,0.7-0.3,0.7-0.7v-1h1c0.4,0,0.7-0.3,0.7-0.7c0-0.4-0.3-0.7-0.7-0.7h-1.7
				c-0.4,0-0.7,0.3-0.7,0.7v1.7C211.6,78.8,211.9,79.1,212.3,79.1z"/>
			<path fill="#F0DBFC" d="M223.9,77.4h3.3c0.4,0,0.7-0.3,0.7-0.7c0-0.4-0.3-0.7-0.7-0.7h-3.3c-0.4,0-0.7,0.3-0.7,0.7
				C223.2,77.1,223.5,77.4,223.9,77.4z"/>
			<path fill="#F0DBFC" d="M217.3,77.4h3.3c0.4,0,0.7-0.3,0.7-0.7c0-0.4-0.3-0.7-0.7-0.7h-3.3c-0.4,0-0.7,0.3-0.7,0.7
				C216.6,77.1,216.9,77.4,217.3,77.4z"/>
			<path fill="#F0DBFC" d="M263.6,77.4h3.3c0.4,0,0.7-0.3,0.7-0.7c0-0.4-0.3-0.7-0.7-0.7h-3.3c-0.4,0-0.7,0.3-0.7,0.7
				C262.9,77.1,263.2,77.4,263.6,77.4z"/>
			<path fill="#F0DBFC" d="M250.3,77.4h3.3c0.4,0,0.7-0.3,0.7-0.7c0-0.4-0.3-0.7-0.7-0.7h-3.3c-0.4,0-0.7,0.3-0.7,0.7
				C249.6,77.1,250,77.4,250.3,77.4z"/>
			<path fill="#F0DBFC" d="M243.7,77.4h3.3c0.4,0,0.7-0.3,0.7-0.7c0-0.4-0.3-0.7-0.7-0.7h-3.3c-0.4,0-0.7,0.3-0.7,0.7
				C243,77.1,243.3,77.4,243.7,77.4z"/>
			<path fill="#F0DBFC" d="M257,77.4h3.3c0.4,0,0.7-0.3,0.7-0.7c0-0.4-0.3-0.7-0.7-0.7H257c-0.4,0-0.7,0.3-0.7,0.7
				C256.3,77.1,256.6,77.4,257,77.4z"/>
			<path fill="#F0DBFC" d="M230.5,77.4h3.3c0.4,0,0.7-0.3,0.7-0.7c0-0.4-0.3-0.7-0.7-0.7h-3.3c-0.4,0-0.7,0.3-0.7,0.7
				C229.8,77.1,230.1,77.4,230.5,77.4z"/>
			<path fill="#F0DBFC" d="M240.4,76h-3.3c-0.4,0-0.7,0.3-0.7,0.7c0,0.4,0.3,0.7,0.7,0.7h3.3c0.4,0,0.7-0.3,0.7-0.7
				C241.1,76.3,240.8,76,240.4,76z"/>
			<path fill="#F0DBFC" d="M271.9,76h-1.7c-0.4,0-0.7,0.3-0.7,0.7c0,0.4,0.3,0.7,0.7,0.7h1v1c0,0.4,0.3,0.7,0.7,0.7
				c0.4,0,0.7-0.3,0.7-0.7v-1.7C272.6,76.3,272.3,76,271.9,76z"/>
			<path fill="#F0DBFC" d="M271.9,88.6c-0.4,0-0.7,0.3-0.7,0.7v3.6c0,0.4,0.3,0.7,0.7,0.7c0.4,0,0.7-0.3,0.7-0.7v-3.6
				C272.6,88.9,272.3,88.6,271.9,88.6z"/>
			<path fill="#F0DBFC" d="M271.9,81.3c-0.4,0-0.7,0.3-0.7,0.7v3.6c0,0.4,0.3,0.7,0.7,0.7c0.4,0,0.7-0.3,0.7-0.7V82
				C272.6,81.6,272.3,81.3,271.9,81.3z"/>
			<path fill="#F0DBFC" d="M238.5,103.2h-26.3c-0.4,0-0.7,0.3-0.7,0.7v21.5c0,0.4,0.3,0.7,0.7,0.7h26.3c0.4,0,0.7-0.3,0.7-0.7v-21.5
				C239.2,103.5,238.9,103.2,238.5,103.2z M213,124.7v-20.1h24.9v20.1H213z"/>
			<path fill="#F0DBFC" d="M271.3,103.2H245c-0.4,0-0.7,0.3-0.7,0.7v21.5c0,0.4,0.3,0.7,0.7,0.7h26.3c0.4,0,0.7-0.3,0.7-0.7v-21.5
				C272,103.5,271.7,103.2,271.3,103.2z M245.7,124.7v-20.1h24.9v20.1H245.7z"/>
		</g>
	</g>
	<g>
		<path fill="#EAD2F9" d="M317.9,130.8h-32.2c-4.4,0-8-3.6-8-8V77.2c0-4.4,3.6-8,8-8h32.2c4.4,0,8,3.6,8,8v45.7
			C325.9,127.3,322.3,130.8,317.9,130.8z"/>
		<rect x="286.4" y="84" fill="#FFFFFF" width="27.3" height="1.2"/>
		<rect x="286.4" y="87.9" fill="#FFFFFF" width="27.3" height="1.2"/>
		<rect x="286.4" y="91.9" fill="#FFFFFF" width="18.2" height="1.2"/>
		<rect x="286.4" y="95.8" fill="#FFFFFF" width="27.3" height="1.2"/>
		<rect x="286.4" y="99.7" fill="#FFFFFF" width="18.2" height="1.2"/>
		<rect x="286.4" y="103.7" fill="#FFFFFF" width="27.3" height="1.2"/>
		<rect x="286.4" y="107.6" fill="#FFFFFF" width="18.2" height="1.2"/>
		<rect x="286.4" y="111.6" fill="#FFFFFF" width="27.3" height="1.2"/>
		<rect x="286.4" y="115.5" fill="#FFFFFF" width="18.2" height="1.2"/>
		<path fill="#9909B7" d="M299.6,80.7h-11.2c-1.1,0-2-0.9-2-2v0c0-1.1,0.9-2,2-2h11.2c1.1,0,2,0.9,2,2l0,0
			C301.5,79.8,300.7,80.7,299.6,80.7z"/>
	</g>
	<g>
		<path fill="#EAD2F9" d="M144.4,73.8h-42.1c-4.4,0-8-3.6-8-8V27.6c0-4.4,3.6-8,8-8h42.1c4.4,0,8,3.6,8,8v38.2
			C152.4,70.2,148.8,73.8,144.4,73.8z"/>
		<rect x="98.5" y="58.8" fill="#9909B7" width="29.4" height="1.3"/>
		<rect x="98.5" y="63" fill="#9909B7" width="19.6" height="1.3"/>
		<path fill="#9909B7" d="M144.2,70.8L144.2,70.8c-2.9,0-5.2-2.3-5.2-5.2v0c0-2.9,2.3-5.2,5.2-5.2h0c2.9,0,5.2,2.3,5.2,5.2v0
			C149.4,68.5,147.1,70.8,144.2,70.8z"/>
		<g>
			<path fill="#2159FF" d="M152.4,54.8H94.3V27.6c0-4.4,3.6-8,8-8h42.1c4.4,0,8,3.6,8,8V54.8z"/>
			<path fill="#0008FF" d="M94.3,37.7c0,0,8.4,10.4,18.7,9.5s14.3-7.5,23.1-7.5c11.4,0,16.3,3.5,16.3,3.5v11.5H94.3V37.7z"/>
			
				<ellipse transform="matrix(2.699773e-02 -0.9996 0.9996 2.699773e-02 72.7663 139.3767)" fill="#FFFFFF" cx="108" cy="32.3" rx="2.9" ry="2.9"/>
			<rect x="117.4" y="39.2" opacity="0.6" fill="#0008FF" width="3.6" height="1.6"/>
			
				<rect x="123.3" y="25.5" transform="matrix(0.7727 0.6348 -0.6348 0.7727 45.1122 -73.4505)" opacity="0.6" fill="#0008FF" width="3.6" height="1.6"/>
			
				<rect x="147.8" y="24.8" transform="matrix(0.9141 -0.4054 0.4054 0.9141 2.4609 62.851)" opacity="0.6" fill="#0008FF" width="3.6" height="1.6"/>
			
				<rect x="95.6" y="22.2" transform="matrix(0.3979 0.9175 -0.9175 0.3979 79.7342 -75.4779)" opacity="0.6" fill="#0008FF" width="3.6" height="1.6"/>
		</g>
	</g>
	<g>
		<path fill="#EAD2F9" d="M189.2,49.1h-51.5c-4.8,0-8.7-3.9-8.7-8.7v-0.8c0-4.8,3.9-8.7,8.7-8.7h51.5c4.8,0,8.7,3.9,8.7,8.7v0.8
			C198,45.2,194,49.1,189.2,49.1z"/>
		<g>
			<rect x="137.5" y="35.3" fill="#FFFFFF" width="51.9" height="1.2"/>
			<rect x="137.5" y="39.4" fill="#FFFFFF" width="51.9" height="1.2"/>
			<rect x="137.5" y="43.4" fill="#FFFFFF" width="34.6" height="1.2"/>
		</g>
	</g>
	<g>
		<g>
			<g>
				<path fill="#E64D4E" d="M256.3,90.9c0,0-2.1-3.2-2.4-5.3s0.6-3.9,2.9-4.8c2.3-0.9,4.2,0.3,4.8,1.1c0.8,0.9,0.9,2.2,1.1,4.4
					C263,88.8,256.3,90.9,256.3,90.9z"/>
				
					<linearGradient id="SVGID_4_" gradientUnits="userSpaceOnUse" x1="229.2511" y1="111.5056" x2="223.1061" y2="117.6256" gradientTransform="matrix(0.9307 -0.3658 0.3658 0.9307 7.045 68.3602)">
					<stop  offset="0" style="stop-color:#F2BFAD"/>
					<stop  offset="0.7354" style="stop-color:#F2DAD4"/>
				</linearGradient>
				<path fill="url(#SVGID_4_)" d="M256,89.9c0,0,0.6,1.6,0.6,2.1c0,0.5,0,3.4,0.1,3.5c0.1,0.1,2.8,1.4,3.8,1.2c1-0.2,2.4-1.7,2.4-2
					c-0.1-0.2-0.5-2.5-0.4-2.8C262.5,91.6,256.9,89.5,256,89.9z"/>
				<path fill="#F2DAD4" d="M259.7,83.2c1.4-0.4,2.3,0.1,2.5,0.5s1,3.5,1.2,4.2c0.2,0.6,0.2,4.2-1,4.5c-1.2,0.4-3.8,0.2-4.7-1
					c-0.9-1.2-1.5-1.5-1.7-1.7c-0.3-0.2-1.3-1.3-1.2-1.8c0.1-0.5,0.3-0.8,0.6-0.6c0.3,0.2,0.9,0.7,1.1,1.2c0.1,0.3-0.4-3.7,0.5-4.2
					C257.7,83.8,259.7,83.2,259.7,83.2z"/>
				
					<linearGradient id="SVGID_5_" gradientUnits="userSpaceOnUse" x1="269.6973" y1="175.331" x2="275.7688" y2="174.2889" gradientTransform="matrix(0.9999 1.460000e-02 -1.460000e-02 0.9999 2.4007 -4.9095)">
					<stop  offset="0" style="stop-color:#1D0633"/>
					<stop  offset="1" style="stop-color:#192B59"/>
				</linearGradient>
				<path fill="url(#SVGID_5_)" d="M274.4,171.2c0.5,0.8,2.1,3,2.4,3.6c0.3,0.5,0.7,1.5,0.5,1.5c-0.2,0.1-1.7,0.5-3.1,0.4
					c-1.4-0.2-2.9-0.6-3-1c-0.2-0.5-0.1-1.3-0.4-1.4c-0.3-0.1-1.1,0-1.6-0.3c-0.5-0.3-0.7-0.4-0.7-0.6c0-0.2-0.1-1.7,0-2.1
					C268.7,170.8,274.4,171.2,274.4,171.2z"/>
				
					<linearGradient id="SVGID_6_" gradientUnits="userSpaceOnUse" x1="259.4148" y1="176.767" x2="249.688" y2="174.9565" gradientTransform="matrix(0.9999 1.460000e-02 -1.460000e-02 0.9999 2.4007 -4.9095)">
					<stop  offset="0" style="stop-color:#1D0633"/>
					<stop  offset="1" style="stop-color:#192B59"/>
				</linearGradient>
				<path fill="url(#SVGID_6_)" d="M252.2,171.4c-0.4,0.4-4.1,3.5-4.4,4c-0.3,0.5-0.2,1.1,0,1.2c0.2,0.1,1.2,0.5,2.4,0.4
					c1.1-0.1,3.3-0.5,4-1.3c0.6-0.8,1.1-1.6,1.4-1.5s0.7,0.4,1.5,0.2c0.8-0.2,1.6-0.5,1.7-0.7c0.1-0.2,0.1-1.5,0-1.7
					C258.5,171.8,252.2,171.4,252.2,171.4z"/>
				<path fill="#192B59" d="M252.3,123.5c-0.2,1.5-0.9,8-0.7,11.4c0.2,3.4,1.8,14,1.5,17c-0.2,3,0.3,13.5-0.2,15
					c-0.5,1.5-1.1,4.6-1,4.8c0.3,0.4,3.1,1.1,4.1,1.1c1.1,0,2.5-0.3,2.7-0.6c0.2-0.3-0.4-6.1-0.1-8.7c0.3-2.6,1.3-9.1,1.3-10.5
					c0-1.4,0.9-12.7,0.9-13.5c0-0.8,0.1-3.5,0.4-3.5c0.3,0,1.4,4.5,1.5,5.4c0.2,0.9,3.3,10.6,3.7,15.5c0.4,4.9,1.2,11.1,1.1,11.7
					c-0.1,0.6,0.7,3.8,1.8,3.9c1.1,0.1,2.8-0.5,3.5-0.6c0.7-0.1,1.6,0,1.7-0.4c0.1-0.4-1.6-4.8-1.7-5.5c-0.1-0.6,0.4-7.5,0.1-9.7
					c-0.3-2.1-1.2-5.7-1.4-6.7c-0.2-0.9,0.1-8.7,0.1-10.5c0-1.7-1.3-14-2.2-15.3C268.7,122.4,252.3,123.5,252.3,123.5z"/>
				
					<linearGradient id="SVGID_7_" gradientUnits="userSpaceOnUse" x1="238.5733" y1="71.4109" x2="238.1108" y2="73.8586" gradientTransform="matrix(0.9999 1.460000e-02 -1.460000e-02 0.9999 2.4007 -4.9095)">
					<stop  offset="0" style="stop-color:#F2BFAD"/>
					<stop  offset="1" style="stop-color:#F2DAD4"/>
				</linearGradient>
				<path fill="url(#SVGID_7_)" d="M236.5,70.7c-0.2,0.6,0.5,2.4,0.8,2.9c0.2,0.4,0.8,4.3,0.8,4.7c0,0.4,0,1.5,0.1,1.6
					c0.1,0.1,1.1,0.6,2,0.5c0.9-0.1,1.2-1.1,1.2-1.3c0-0.2-0.3-1.7-0.5-2.5c-0.2-0.8-0.3-2.6,0-2.9c0.3-0.4,1.6-1.2,1.7-1.6
					c0.1-0.4,0-2.1-0.3-2.4c-0.3-0.3-1.1,0-1.3,0c-0.2,0-0.5,0.2-0.5,0.4c0,0.2,0.5,0.5,0.6,0.5c0.1,0,0.2,0.1,0.2,0.2
					c0,0.1-0.2,0.3-0.3,0.2c-0.1,0,0.1-0.5-0.5-0.5c-0.6,0-3-0.4-3.2-0.5C237.3,70.1,236.6,70.4,236.5,70.7z"/>
				
					<linearGradient id="SVGID_8_" gradientUnits="userSpaceOnUse" x1="277.9327" y1="70.6964" x2="277.4702" y2="73.1442" gradientTransform="matrix(-0.9816 0.1909 0.1909 0.9816 536.6721 -55.7607)">
					<stop  offset="0" style="stop-color:#F2BFAD"/>
					<stop  offset="1" style="stop-color:#F2DAD4"/>
				</linearGradient>
				<path fill="url(#SVGID_8_)" d="M280.9,66.9c0.3,0.5-0.1,2.5-0.2,2.9c-0.1,0.5,0,4.4,0.1,4.8c0.1,0.4,0.3,1.5,0.2,1.6
					c-0.1,0.1-1,0.8-1.9,0.9c-0.9,0.1-1.4-0.9-1.4-1.1c0-0.2,0-1.7,0-2.5s-0.2-2.6-0.5-2.9c-0.4-0.3-1.8-0.9-2-1.3
					c-0.1-0.4-0.4-2.1-0.2-2.4c0.2-0.4,1.1-0.2,1.2-0.2s0.6,0.1,0.6,0.3s-0.4,0.6-0.5,0.6c-0.1,0-0.2,0.1-0.2,0.2
					c0,0.1,0.2,0.2,0.3,0.2c0.1,0-0.2-0.4,0.4-0.5c0.6-0.1,2.9-0.9,3-1C280,66.4,280.7,66.6,280.9,66.9z"/>
				
					<linearGradient id="SVGID_9_" gradientUnits="userSpaceOnUse" x1="235.4411" y1="101.3913" x2="280.5536" y2="101.3913" gradientTransform="matrix(0.9999 1.460000e-02 -1.460000e-02 0.9999 2.4007 -4.9095)">
					<stop  offset="0" style="stop-color:#4E9CFF"/>
					<stop  offset="1" style="stop-color:#176AD4"/>
				</linearGradient>
				<path fill="url(#SVGID_9_)" d="M236.6,80.5c-0.2,1.2,1.9,5.6,2.3,6.5c0.3,0.9,2.8,6.3,3.2,6.7c0.3,0.4,2.9,2.6,4,3.9
					c1.1,1.4,3.9,3.5,4.4,4c0.5,0.5,1.6,3.8,1.5,8.3c-0.2,4.5-1.6,14.6-1.3,14.8c0.3,0.2,6.6-0.1,10.1-0.1c3.5,0.1,11.9,0.6,12.2,0
					c0.2-0.6-3.8-14.2-3.8-16.3c0-2.1,0.9-7.6,2-8.7c1.1-1.1,7.7-7.3,8.8-9.8c1.1-2.5,2.1-12.2,2-13.1c-0.1-0.9-4.4-0.9-4.6-0.4
					c-0.2,0.4-0.6,7.5-1.3,8.8c-0.7,1.3-4.6,7.3-5.5,7.5c-0.9,0.2-5.6,2-6.4,1.8s-0.7-1.9-1.2-1.9c-0.5,0-0.5,0.9-1.2,0.9
					c-0.7,0.1-0.5,0.8-0.6,1.5c0,0.7-0.9,1.5-1.3,1.4c-0.4-0.1-1.5-2.1-2.1-2.3c-0.6-0.2-1.3-0.1-1.5,0.1c-0.2,0.2-0.4,0.5-0.8,0.2
					c-0.4-0.3-4-0.6-4.4-0.5c-0.4,0-1.4-0.3-1.9-1.2c-0.5-0.9-3.9-4-4-4.3s-1.6-3.8-1.9-4.6s-0.9-4.2-1.4-4.5
					c-0.5-0.2-2.2-0.1-3,0.1C238,79.4,236.7,80.1,236.6,80.5z"/>
			</g>
			<linearGradient id="SVGID_10_" gradientUnits="userSpaceOnUse" x1="244.2912" y1="97.1826" x2="123.0828" y2="141.5825">
				<stop  offset="0" style="stop-color:#F2BE3C"/>
				<stop  offset="1" style="stop-color:#FFAC00"/>
			</linearGradient>
			<path fill="url(#SVGID_10_)" d="M140.9,165.3c-32.8,0-43.7-19.5-44.9-29.8c-0.9-7.8,0.2-13.4,3.4-17.2c2.9-3.5,7.6-5.3,14.3-5.7
				v3.4c-5.7,0.3-9.4,1.8-11.7,4.5c-2.6,3-3.4,7.8-2.6,14.6c1.1,9.3,11.1,26.7,41.5,26.7c11.6,0,20.1-3,26.6-9.4
				c6-5.9,9.9-14.1,14.4-23.5c6.5-13.7,14-29.1,30.2-42.4c9.2-7.5,19.6-13.8,30.9-18.6c0.9-0.4,1.9,0,2.2,0.9c0.4,0.9,0,1.9-0.9,2.2
				c-11,4.7-21.1,10.8-30.1,18.1c-15.7,12.8-22.9,28-29.3,41.3c-4.5,9.3-8.7,18.1-15.1,24.4C162.7,162,153.5,165.3,140.9,165.3z"/>
			<linearGradient id="SVGID_11_" gradientUnits="userSpaceOnUse" x1="302.1597" y1="66.5795" x2="308.6414" y2="137.5544">
				<stop  offset="0" style="stop-color:#F2BE3C"/>
				<stop  offset="1" style="stop-color:#FFAC00"/>
			</linearGradient>
			<path fill="url(#SVGID_11_)" d="M307.6,172.7c-0.4,0-0.8,0-1.2-0.1c-4.8-0.5-9.5-4-13.5-10.3c-2.2-3.4-4.3-8-6.2-13.1l3.6,0
				c4.4,12,10.4,19.4,16.4,20c3.7,0.4,8.2-1.9,12.5-6.3c4.7-4.9,8.8-11.8,11.6-19.6c3-8.4,4-16.9,3-24.5
				c-1.5-11.5-8.2-22.8-18.8-31.7c-11-9.3-25.4-15.5-41.7-18.1c-0.9-0.1-1.6-1-1.4-1.9c0.1-0.9,1-1.6,1.9-1.4
				c16.8,2.7,31.8,9.2,43.3,18.9c11.3,9.5,18.4,21.5,20,33.9c2.3,17.9-6,37.1-15.5,46.9C316.9,170.1,312.1,172.7,307.6,172.7z"/>
			
				<linearGradient id="SVGID_12_" gradientUnits="userSpaceOnUse" x1="234.8378" y1="72.4275" x2="238.7713" y2="71.3231" gradientTransform="matrix(0.9999 1.460000e-02 -1.460000e-02 0.9999 2.4007 -4.9095)">
				<stop  offset="0" style="stop-color:#F2BFAD"/>
				<stop  offset="1" style="stop-color:#F2DAD4"/>
			</linearGradient>
			<path fill="url(#SVGID_12_)" d="M237.3,70.1c0.3-0.2,0.5-0.6,0.8-0.6c0.2,0,0.3,0,0.3,0c0.1,0,0.3-0.5,0.6-0.5
				c0.3-0.1,0.5,0.1,0.6,0c0,0,0.1-0.4,0.4-0.3c0.3,0,0.4,0.2,0.4,0.2c0.1,0,0.3-0.2,0.6-0.1c0.2,0.1,0.4,0.5,0.4,0.7
				c0,0.2,0,1.2-0.2,1.3c-0.3,0.1-0.5,0.1-0.6,0c-0.1-0.1-0.2,0.4-0.4,0.4c-0.2,0-0.4-0.1-0.5-0.1c-0.1,0-0.1,0.3-0.4,0.3
				c-0.3,0-0.5-0.2-0.6-0.2c-0.1,0-0.2,0.2-0.5,0.2c-0.3,0-0.5-0.1-0.5-0.4c0-0.2,0.1-0.5-0.1-0.5C237.5,70.4,237.3,70.1,237.3,70.1
				z"/>
			
				<linearGradient id="SVGID_13_" gradientUnits="userSpaceOnUse" x1="279.6485" y1="69.2332" x2="275.8465" y2="67.5557" gradientTransform="matrix(0.9999 1.460000e-02 -1.460000e-02 0.9999 2.4007 -4.9095)">
				<stop  offset="0" style="stop-color:#F2BFAD"/>
				<stop  offset="1" style="stop-color:#F2DAD4"/>
			</linearGradient>
			<path fill="url(#SVGID_13_)" d="M280,66.5c-0.3-0.1-0.6-0.5-0.9-0.5c-0.2,0-0.3,0.1-0.3,0.1c-0.1,0-0.3-0.4-0.6-0.4
				c-0.3,0-0.5,0.2-0.6,0.1c-0.1,0-0.2-0.3-0.5-0.3c-0.3,0.1-0.3,0.3-0.4,0.3s-0.4-0.2-0.6,0c-0.2,0.2-0.3,0.6-0.3,0.7
				c0,0.1,0.2,1.2,0.5,1.3c0.3,0,0.5,0,0.6-0.1c0.1-0.1,0.3,0.3,0.5,0.3c0.2-0.1,0.4-0.2,0.4-0.2c0.1,0,0.1,0.3,0.4,0.2
				c0.3-0.1,0.4-0.3,0.5-0.3c0.1,0,0.2,0.2,0.6,0.1c0.3-0.1,0.5-0.2,0.4-0.4s-0.1-0.4,0-0.5C279.9,66.8,280,66.5,280,66.5z"/>
		</g>
		<g>
			<g>
				<path fill="#192B59" d="M255.5,63.6l-3.6,1.2c-0.3,0.1-0.7-0.1-0.8-0.4l0,0c-0.1-0.3,0.1-0.7,0.4-0.8l3.6-1.2
					c0.3-0.1,0.7,0.1,0.8,0.4l0,0C256,63.2,255.8,63.5,255.5,63.6z"/>
				<path fill="#192B59" d="M256.8,67.6l-3.6,1.2c-0.3,0.1-0.7-0.1-0.8-0.4l0,0c-0.1-0.3,0.1-0.7,0.4-0.8l3.6-1.2
					c0.3-0.1,0.7,0.1,0.8,0.4l0,0C257.3,67.2,257.1,67.5,256.8,67.6z"/>
			</g>
			<path fill="#FFAC00" d="M252.9,72l-3.4,1.1c-3,1-6.2-0.6-7.1-3.6l0,0c-1-3,0.6-6.2,3.6-7.1l3.4-1.1L252.9,72z"/>
			<path fill="#FFAC00" d="M253.8,72.6L253.8,72.6c-0.4,0.1-0.8-0.1-0.9-0.4l-3.6-10.9c-0.1-0.4,0.1-0.8,0.4-0.9l0,0
				c0.4-0.1,0.8,0.1,0.9,0.4l3.6,10.9C254.3,72,254.1,72.4,253.8,72.6z"/>
		</g>
		<path fill="#FFAC00" d="M267.2,60.4l3.5,0.7c3.1,0.6,5,3.6,4.4,6.6v0c-0.6,3.1-3.6,5-6.6,4.4l-3.5-0.7L267.2,60.4z"/>
	</g>
	<g>
		<path fill="#EAD2F9" d="M124.4,132.7H77.2c-4.4,0-8-3.6-8-8V91.2c0-4.4,3.6-8,8-8h47.2c4.4,0,8,3.6,8,8v33.5
			C132.4,129.1,128.8,132.7,124.4,132.7z"/>
		<rect x="73.6" y="86.6" fill="#9909B7" width="19" height="2.8"/>
		<path fill="#FFFFFF" d="M123,120.9H79.6c-3.3,0-6-2.7-6-6v-16c0-3.3,2.7-6,6-6H123c3.3,0,6,2.7,6,6v16
			C129,118.2,126.3,120.9,123,120.9z"/>
		<rect x="76.7" y="102.2" fill="#D3D6DB" width="28" height="1.2"/>
		<rect x="76.7" y="106.2" fill="#D3D6DB" width="28" height="1.2"/>
		<rect x="76.7" y="110.3" fill="#D3D6DB" width="18.7" height="1.2"/>
		<path fill="#9909B7" d="M120,117.8L120,117.8c-2.8,0-5-2.2-5-5v0c0-2.8,2.2-5,5-5h0c2.8,0,5,2.2,5,5v0
			C124.9,115.5,122.7,117.8,120,117.8z"/>
		<path fill="#9909B7" d="M90.2,98.8H78.7c-1.1,0-2-0.9-2-2l0,0c0-1.1,0.9-2,2-2h11.5c1.1,0,2,0.9,2,2l0,0
			C92.3,97.9,91.3,98.8,90.2,98.8z"/>
	</g>
</g>
<g>
	<g>
		<linearGradient id="SVGID_14_" gradientUnits="userSpaceOnUse" x1="102.2811" y1="134.5471" x2="82.2091" y2="149.6011">
			<stop  offset="0" style="stop-color:#4E9CFF"/>
			<stop  offset="1" style="stop-color:#176AD4"/>
		</linearGradient>
		<path fill="url(#SVGID_14_)" d="M93.1,134.5c1.7,0.4,8.1,0.2,6.9-3c-1.4-3.5-5-0.4-6.6,1.5c0.6-3.1,0.7-6.3,0.7-8
			c1.2-1.4,3.6-10.2-1.2-9.8c-6.3,0.6-0.7,8.9,0.7,9.9c0,2-0.1,6.1-1.1,9.6c-0.2-2.2-2.4-8.6-5.4-6.3c-4.3,3.2,3.9,7.2,5.2,7.1
			c-0.4,1.3-0.9,2.5-1.6,3.4c-0.5,0.7-1,1.5-1.5,2.3c0,0,0,0,0,0c-0.3-2.3-2.5-8.4-5.4-6.2c-4,3,2.9,6.6,4.8,7
			c-1.2,2-2.4,4.2-3.4,6.4c-0.1-2.1-4.3-6.5-5.9-4c-0.9,1.4,4,5.9,5.6,4.9c-0.9,2.2-1.5,4.3-1.3,5.9c0.1,0.6,0.2,1.2,0.3,1.9
			c-1.1-1.3-5.3-5.5-6.5-2.2c-1,2.7,2.4,4.3,3.8,4.3c1.1,0,2.3-1.1,2.8-1.5c0.1,0.4,0.1,0.8,0.2,1.2c0.6,3.3,1.3,7.3,1.1,9.8
			c-1-1.9-5.3-9.7-7.8-4.7c-1.3,2.6,2.4,4.8,3.8,5.2c1.2,0.4,3.3,0,4-0.1c0,0.3-0.1,0.5-0.2,0.7c-0.9,2.8-2.8,5.6-2.8,5.6
			c-0.1,0.1,0,0.3,0.1,0.3c0,0,0.1,0,0.1,0c0.1,0,0.2,0,0.2-0.1c0,0,1.4-2.1,2.4-4.5c1.1-0.1,5.4-0.7,6.7-1.6c1.4-1,4-4.1,1.9-5.2
			c-3.2-1.8-6.6,3-8.1,5.4c0.5-1.8,0.1-5.5-0.5-9c1.2,0.3,4.9-0.3,6.2-1.2c1.4-1,3.9-3.4,2.4-4.8c-3.8-3.4-7.8,3.8-8.7,5.5
			c-0.1-0.5-0.2-1.1-0.3-1.6c-0.2-1.4-0.5-2.7-0.6-3.7c-0.2-1.4,0.4-3.5,1.3-5.7c0.8,0.2,3.3,0.9,6.1,0.5c3.3-0.5,5-3.1,3.8-4.3
			c-2.1-2.1-8.2,2.2-9.7,3.4c1-2.2,2.3-4.7,3.8-7.1c1.9,0.4,9.7,0.3,8.6-2.8c-1-3.1-5-1-7.3,0.8c0.2-0.3,0.4-0.6,0.6-0.8
			C92,137.9,92.7,136.3,93.1,134.5z"/>
		<linearGradient id="SVGID_15_" gradientUnits="userSpaceOnUse" x1="72.8491" y1="147.175" x2="69.6721" y2="177.0389">
			<stop  offset="0" style="stop-color:#F2BE3C"/>
			<stop  offset="1" style="stop-color:#FFAC00"/>
		</linearGradient>
		<path fill="url(#SVGID_15_)" d="M79.3,164c-4-1.6-5,4.5-5.2,6.5c-0.9-2.9-1.3-6.5-0.9-9.4c0.6,0,3-0.1,4.6-0.9
			c1.9-1,3.1-4.8,1.4-5.2c-2.8-0.8-5.2,4-6,5.6c0.1-0.4,0.1-0.7,0.2-1.1c0.6-2.2,1-5.1,1.2-7.9c0.8,0,2.8-0.1,4-0.5
			c1.4-0.5,3.8-4.2,1.9-4.8c-2.7-0.8-5,3.1-5.9,4.6c0.2-2.9,0-5.8-0.5-7.7c0.2-0.8,0.6-2.6,0.6-4c0-1.9-2.2-5.6-4.3-3.8
			c-3.8,3.4,1.9,7.3,3.2,8.2c0.5,1.9,0.6,4.6,0.4,7.5c-0.8-2.1-4.3-9.8-8.4-6.1c-1.6,1.4,1.9,4.8,4.3,5.7c1.9,0.8,3.5,0.9,4.1,1
			c-0.2,2.8-0.6,5.6-1.2,7.8c-0.1,0.4-0.2,0.8-0.3,1.3c-0.9-1.8-5.1-9.6-9.7-6.2c-1.9,1.4,1.9,4.8,3.8,5.7c1.6,0.8,5,0.9,5.9,0.9
			c-0.4,2.9,0,6.4,0.8,9.4c-1.4-2.1-5.5-7.5-8.6-4c-1.8,2.1,2.9,3.8,4.3,4.3c1.2,0.4,3.7,0.5,4.5,0.5c0.7,2,1.6,3.7,2.7,4.6
			c0,0,0.1,0.1,0.2,0.1c0.1,0,0.1,0,0.2-0.1c0.1-0.1,0.1-0.3,0-0.3c-1-0.9-1.9-2.5-2.5-4.4c0.6-0.3,2.4-1,3.6-1.8
			C79.3,168.3,81.5,164.9,79.3,164z"/>
		<path fill="#7500B2" d="M89.5,175.9H67.9c-0.1,0-0.2-0.1-0.2-0.2c0-0.1,0.1-0.2,0.2-0.2h21.6c0.1,0,0.2,0.1,0.2,0.2
			C89.8,175.8,89.7,175.9,89.5,175.9z"/>
		<path fill="#7500B2" d="M97.2,175.9h-5c-0.1,0-0.2-0.1-0.2-0.2c0-0.1,0.1-0.2,0.2-0.2h5c0.1,0,0.2,0.1,0.2,0.2
			C97.4,175.8,97.3,175.9,97.2,175.9z"/>
	</g>
	<g>
		<linearGradient id="SVGID_16_" gradientUnits="userSpaceOnUse" x1="362.943" y1="145.4853" x2="348.1839" y2="156.5547">
			<stop  offset="0" style="stop-color:#4E9CFF"/>
			<stop  offset="1" style="stop-color:#176AD4"/>
		</linearGradient>
		<path fill="url(#SVGID_16_)" d="M356.2,145.5c1.3,0.3,6,0.1,5.1-2.2c-1-2.6-3.7-0.3-4.8,1.1c0.4-2.3,0.5-4.6,0.5-5.9
			c0.9-1,2.7-7.5-0.9-7.2c-4.6,0.4-0.5,6.6,0.5,7.3c0,1.5-0.1,4.5-0.8,7c-0.1-1.6-1.8-6.3-4-4.7c-3.2,2.4,2.9,5.3,3.8,5.2
			c-0.3,0.9-0.7,1.8-1.1,2.5c-0.3,0.5-0.7,1.1-1.1,1.7c0,0,0,0,0,0c-0.2-1.7-1.8-6.2-3.9-4.5c-2.9,2.2,2.1,4.9,3.5,5.2
			c-0.9,1.4-1.8,3.1-2.5,4.7c-0.1-1.6-3.2-4.7-4.4-2.9c-0.7,1,2.9,4.3,4.1,3.6c-0.7,1.6-1.1,3.2-0.9,4.3c0.1,0.4,0.1,0.9,0.2,1.4
			c-0.8-0.9-3.9-4-4.8-1.6c-0.7,2,1.7,3.1,2.8,3.1c0.8,0,1.7-0.8,2-1.1c0,0.3,0.1,0.6,0.2,0.9c0.4,2.5,0.9,5.4,0.8,7.2
			c-0.7-1.4-3.9-7.2-5.8-3.4c-1,1.9,1.7,3.5,2.8,3.8c0.9,0.3,2.4,0,2.9-0.1c0,0.2-0.1,0.4-0.1,0.5c-0.7,2.1-2.1,4.1-2.1,4.2
			c-0.1,0.1,0,0.2,0,0.2c0,0,0.1,0,0.1,0c0.1,0,0.1,0,0.1-0.1c0,0,1-1.6,1.8-3.3c0.8-0.1,4-0.5,4.9-1.1c1-0.7,2.9-3,1.4-3.8
			c-2.4-1.3-4.8,2.2-5.9,4c0.4-1.4,0-4.1-0.4-6.6c0.8,0.3,3.6-0.2,4.6-0.9c1-0.7,2.9-2.5,1.7-3.5c-2.8-2.5-5.7,2.8-6.4,4
			c-0.1-0.4-0.1-0.8-0.2-1.2c-0.2-1-0.3-2-0.4-2.7c-0.1-1,0.3-2.5,1-4.2c0.6,0.2,2.4,0.7,4.5,0.4c2.4-0.3,3.7-2.3,2.8-3.1
			c-1.5-1.5-6,1.6-7.2,2.5c0.7-1.7,1.7-3.5,2.8-5.2c1.4,0.3,7.1,0.2,6.3-2c-0.8-2.3-3.7-0.7-5.4,0.6c0.1-0.2,0.3-0.4,0.4-0.6
			C355.4,147.9,355.9,146.7,356.2,145.5z"/>
		<linearGradient id="SVGID_17_" gradientUnits="userSpaceOnUse" x1="341.3014" y1="154.7708" x2="338.9652" y2="176.73">
			<stop  offset="0" style="stop-color:#F2BE3C"/>
			<stop  offset="1" style="stop-color:#FFAC00"/>
		</linearGradient>
		<path fill="url(#SVGID_17_)" d="M346.1,167.1c-2.9-1.2-3.7,3.3-3.8,4.8c-0.6-2.1-0.9-4.8-0.6-6.9c0.4,0,2.2-0.1,3.4-0.7
			c1.4-0.7,2.3-3.5,1-3.8c-2-0.6-3.8,2.9-4.4,4.2c0-0.3,0.1-0.5,0.2-0.8c0.4-1.6,0.8-3.7,0.9-5.8c0.6,0,2.1-0.1,2.9-0.3
			c1-0.3,2.8-3.1,1.4-3.5c-2-0.6-3.7,2.3-4.3,3.4c0.1-2.2,0-4.2-0.3-5.7c0.2-0.6,0.5-1.9,0.5-3c0-1.4-1.6-4.2-3.1-2.8
			c-2.8,2.5,1.4,5.4,2.4,6c0.3,1.4,0.4,3.4,0.3,5.5c-0.6-1.6-3.2-7.2-6.2-4.5c-1.2,1,1.4,3.5,3.1,4.2c1.4,0.6,2.6,0.7,3,0.7
			c-0.1,2-0.5,4.1-0.9,5.7c-0.1,0.3-0.1,0.6-0.2,0.9c-0.7-1.3-3.7-7-7.2-4.5c-1.4,1,1.4,3.5,2.8,4.2c1.2,0.6,3.6,0.6,4.3,0.6
			c-0.3,2.1,0,4.7,0.6,6.9c-1-1.6-4-5.5-6.3-3c-1.4,1.5,2.2,2.8,3.1,3.1c0.9,0.3,2.8,0.4,3.3,0.4c0.5,1.5,1.2,2.7,2,3.4
			c0,0,0.1,0,0.1,0c0.1,0,0.1,0,0.1-0.1c0.1-0.1,0.1-0.2,0-0.2c-0.8-0.6-1.4-1.8-1.9-3.3c0.5-0.2,1.8-0.8,2.6-1.3
			C346.1,170.3,347.7,167.8,346.1,167.1z"/>
		<path fill="#7500B2" d="M353.6,175.9h-15.9c-0.1,0-0.2-0.1-0.2-0.2c0-0.1,0.1-0.2,0.2-0.2h15.9c0.1,0,0.2,0.1,0.2,0.2
			C353.8,175.8,353.7,175.9,353.6,175.9z"/>
		<path fill="#7500B2" d="M359.2,175.9h-3.7c-0.1,0-0.2-0.1-0.2-0.2c0-0.1,0.1-0.2,0.2-0.2h3.7c0.1,0,0.2,0.1,0.2,0.2
			C359.3,175.8,359.3,175.9,359.2,175.9z"/>
	</g>
</g>
</svg>
