<svg xmlns="http://www.w3.org/2000/svg" xmlns:xlink="http://www.w3.org/1999/xlink" x="0px" y="0px"
	 viewBox="0 0 459.7 357.5" style="enable-background:new 0 0 459.7 357.5;" xml:space="preserve">
<g>
	<path style="fill:#E6E8EC;" d="M419.9,353.2c0,2.3-85.1,4.2-190.1,4.2s-190.1-1.9-190.1-4.2c0-2.3,85.1-4.2,190.1-4.2
		S419.9,350.9,419.9,353.2z"/>
	<g>
		<g>
			<path style="fill:#FFFFFF;stroke:#C0C7D0;stroke-miterlimit:10;" d="M415.3,352.2c-8.4-17.8-41.7-33.9-21.7-56.3
				c20-22.4-43.7-47.5-14.5-68.5c32.2-23.2,15.5-56.2,36.2-56.2V352.2z"/>
			<path style="fill:#FFFFFF;stroke:#C0C7D0;stroke-miterlimit:10;" d="M415.3,352.2c8.4-17.8,41.7-33.9,21.7-56.3
				c-20-22.4,43.7-47.5,14.5-68.5c-32.2-23.2-15.5-56.2-36.2-56.2V352.2z"/>
		</g>
		<path style="fill:none;stroke:#C0C7D0;stroke-miterlimit:10;" d="M415.3,339.7c0-24.9-28-29.8-28-29.8"/>
		<path style="fill:none;stroke:#C0C7D0;stroke-miterlimit:10;" d="M415.3,285.5c0-27.2-26.7-48-44-46.5"/>
		<path style="fill:none;stroke:#C0C7D0;stroke-miterlimit:10;" d="M415.3,233.9c0-28.1-14.1-42.1-14.1-42.1"/>
		<path style="fill:none;stroke:#C0C7D0;stroke-miterlimit:10;" d="M415.3,339.7c0-24.9,28-29.8,28-29.8"/>
		<path style="fill:none;stroke:#C0C7D0;stroke-miterlimit:10;" d="M415.3,285.5c0-27.2,26.7-48,44-46.5"/>
		<path style="fill:none;stroke:#C0C7D0;stroke-miterlimit:10;" d="M415.3,233.9c0-28.1,14.1-42.1,14.1-42.1"/>
	</g>
	<g>
		<g>
			<path style="fill:#FFFFFF;stroke:#C0C7D0;stroke-miterlimit:10;" d="M44.5,352.2c8.4-17.8,41.7-33.9,21.7-56.3
				c-20-22.4,43.7-47.5,14.5-68.5c-32.2-23.2-15.5-56.2-36.2-56.2V352.2z"/>
			<path style="fill:#FFFFFF;stroke:#C0C7D0;stroke-miterlimit:10;" d="M44.5,352.2c-8.4-17.8-41.7-33.9-21.7-56.3
				c20-22.4-43.7-47.5-14.5-68.5c32.2-23.2,15.5-56.2,36.2-56.2V352.2z"/>
		</g>
		<path style="fill:none;stroke:#C0C7D0;stroke-miterlimit:10;" d="M44.5,339.7c0-24.9,28-29.8,28-29.8"/>
		<path style="fill:none;stroke:#C0C7D0;stroke-miterlimit:10;" d="M44.5,285.5c0-27.2,26.7-48,44-46.5"/>
		<path style="fill:none;stroke:#C0C7D0;stroke-miterlimit:10;" d="M44.5,233.9c0-28.1,14.1-42.1,14.1-42.1"/>
		<path style="fill:none;stroke:#C0C7D0;stroke-miterlimit:10;" d="M44.5,339.7c0-24.9-28-29.8-28-29.8"/>
		<path style="fill:none;stroke:#C0C7D0;stroke-miterlimit:10;" d="M44.5,285.5c0-27.2-26.7-48-44-46.5"/>
		<path style="fill:none;stroke:#C0C7D0;stroke-miterlimit:10;" d="M44.5,233.9c0-28.1-14.1-42.1-14.1-42.1"/>
	</g>
	<path style="fill:#FFFFFF;stroke:#C0C7D0;stroke-miterlimit:10;" d="M108.5,119.2c0-1.9-0.2-3.7-0.5-5.5c-0.2-1.1,0.3-2.2,1.3-2.8
		l4.3-2.5c1.3-0.7,1.7-2.4,1-3.6l-6-10.5c-0.7-1.3-2.4-1.7-3.6-1l-4.3,2.5c-1,0.6-2.2,0.5-3-0.3c-2.8-2.4-6-4.2-9.5-5.5
		c-1-0.4-1.7-1.4-1.7-2.5v-5c0-1.5-1.2-2.7-2.7-2.7H71.6c-1.5,0-2.7,1.2-2.7,2.7v5c0,1.1-0.7,2.1-1.7,2.5c-3.5,1.3-6.7,3.1-9.5,5.5
		c-0.9,0.7-2.1,0.8-3,0.3l-4.3-2.5c-1.3-0.7-2.9-0.3-3.6,1l-6,10.5c-0.7,1.3-0.3,2.9,1,3.6L46,111c1,0.6,1.5,1.7,1.3,2.8
		c-0.3,1.8-0.5,3.6-0.5,5.5c0,1.9,0.2,3.7,0.5,5.5c0.2,1.1-0.3,2.2-1.3,2.8l-4.3,2.5c-1.3,0.7-1.7,2.4-1,3.6l6,10.5
		c0.7,1.3,2.4,1.7,3.6,1l4.3-2.5c1-0.6,2.2-0.5,3,0.3c2.8,2.4,6,4.2,9.5,5.5c1,0.4,1.7,1.4,1.7,2.5v5c0,1.5,1.2,2.7,2.7,2.7h12.1
		c1.5,0,2.7-1.2,2.7-2.7v-5c0-1.1,0.7-2.1,1.7-2.5c3.5-1.3,6.7-3.1,9.5-5.5c0.9-0.7,2.1-0.8,3-0.3l4.3,2.5c1.3,0.7,2.9,0.3,3.6-1
		l6-10.5c0.7-1.3,0.3-2.9-1-3.6l-4.3-2.5c-1-0.6-1.5-1.7-1.3-2.8C108.4,122.9,108.5,121.1,108.5,119.2z M79.8,135.7
		c-10.9,1.4-20.1-7.8-18.7-18.7c0.9-7.4,6.9-13.4,14.3-14.3c10.9-1.4,20.1,7.8,18.7,18.7C93.2,128.8,87.2,134.8,79.8,135.7z"/>
	<path style="fill:#FFFFFF;stroke:#C0C7D0;stroke-miterlimit:10;" d="M152.4,64.1c1.1-1.9,2.1-3.9,2.8-5.9c0.5-1.2,1.7-2.1,3-2
		l5.9,0.1c1.8,0,3.2-1.4,3.2-3.1l0.2-14.4c0-1.8-1.4-3.2-3.1-3.2l-5.9-0.1c-1.3,0-2.5-0.9-2.9-2.1c-1.4-4.1-3.6-8-6.4-11.4
		c-0.8-1-0.9-2.5-0.3-3.6l3-5.1c0.9-1.5,0.4-3.5-1.1-4.4l-12.4-7.4c-1.5-0.9-3.5-0.4-4.4,1.1l-3,5.1c-0.7,1.1-2,1.7-3.3,1.5
		c-4.4-0.8-8.8-0.9-13.1-0.2c-1.3,0.2-2.6-0.4-3.3-1.6l-2.9-5.2c-0.9-1.5-2.8-2.1-4.3-1.2l-12.6,7c-1.5,0.9-2.1,2.8-1.2,4.3l2.9,5.2
		c0.6,1.2,0.5,2.6-0.4,3.6c-1.4,1.6-2.7,3.4-3.9,5.3c-1.1,1.9-2.1,3.9-2.8,5.9c-0.5,1.2-1.7,2.1-3,2l-5.9-0.1
		c-1.8,0-3.2,1.4-3.2,3.1l-0.2,14.4c0,1.8,1.4,3.2,3.1,3.2l5.9,0.1c1.3,0,2.5,0.9,2.9,2.1c1.4,4.1,3.6,8,6.4,11.4
		c0.8,1,0.9,2.5,0.3,3.6l-3,5.1c-0.9,1.5-0.4,3.5,1.1,4.4l12.4,7.4c1.5,0.9,3.5,0.4,4.4-1.1l3-5.1c0.7-1.1,2-1.7,3.3-1.5
		c4.4,0.8,8.8,0.9,13.1,0.2c1.3-0.2,2.6,0.4,3.3,1.6l2.9,5.2c0.9,1.5,2.8,2.1,4.3,1.2l12.6-7c1.5-0.9,2.1-2.8,1.2-4.3l-2.9-5.2
		c-0.6-1.2-0.5-2.6,0.4-3.6C149.9,67.8,151.2,66,152.4,64.1z M112.8,63.5c-12-5.2-15.8-20.2-7.7-30.6c5.5-7,15.3-9.5,23.5-6
		c12,5.2,15.8,20.2,7.7,30.6C130.8,64.6,121,67.1,112.8,63.5z"/>
	<path style="fill:#FFFFFF;stroke:#C0C7D0;stroke-miterlimit:10;" d="M424.3,93.4c0-2.6-0.2-5.1-0.7-7.5c-0.3-1.5,0.4-3,1.8-3.8
		l5.9-3.4c1.7-1,2.3-3.2,1.3-5l-8.3-14.3c-1-1.7-3.2-2.3-5-1.3l-5.9,3.4c-1.3,0.8-3,0.6-4.1-0.4c-3.8-3.2-8.2-5.8-13-7.5
		c-1.4-0.5-2.4-1.9-2.4-3.4v-6.8c0-2-1.6-3.6-3.6-3.6h-16.5c-2,0-3.6,1.6-3.6,3.6v6.8c0,1.5-0.9,2.9-2.4,3.4
		c-4.8,1.7-9.2,4.3-13,7.5c-1.2,1-2.8,1.1-4.1,0.4l-5.9-3.4c-1.7-1-4-0.4-5,1.3l-8.3,14.3c-1,1.7-0.4,4,1.3,5l5.9,3.4
		c1.3,0.8,2,2.3,1.8,3.8c-0.4,2.4-0.7,4.9-0.7,7.5c0,2.6,0.2,5.1,0.7,7.5c0.3,1.5-0.4,3-1.8,3.8l-5.9,3.4c-1.7,1-2.3,3.2-1.3,5
		l8.3,14.3c1,1.7,3.2,2.3,5,1.3l5.9-3.4c1.3-0.8,3-0.6,4.1,0.4c3.8,3.2,8.2,5.8,13,7.5c1.4,0.5,2.4,1.9,2.4,3.4v6.8
		c0,2,1.6,3.6,3.6,3.6h16.5c2,0,3.6-1.6,3.6-3.6v-6.8c0-1.5,0.9-2.9,2.4-3.4c4.8-1.7,9.2-4.3,13-7.5c1.2-1,2.8-1.1,4.1-0.4l5.9,3.4
		c1.7,1,4,0.4,5-1.3l8.3-14.3c1-1.7,0.4-4-1.3-5l-5.9-3.4c-1.3-0.8-2-2.3-1.8-3.8C424.1,98.5,424.3,96,424.3,93.4z M385.1,116
		c-14.9,1.9-27.4-10.6-25.5-25.5c1.3-10.1,9.5-18.3,19.6-19.6c14.9-1.9,27.4,10.6,25.5,25.5C403.4,106.5,395.2,114.7,385.1,116z"/>
	<g>
		<g>
			<rect x="77.6" y="119.2" style="fill:#E6E8EC;" width="304.5" height="195.2"/>
			<g>
				<rect x="77.6" y="127" style="fill:#C0C7D0;" width="304.5" height="17.1"/>
				<g>
					<g>
						<path style="fill:#2C4359;" d="M95.8,133.6l1.7,1.8v2.4h-3.4v-2.4L95.8,133.6 M95.8,132.4c-0.1,0-0.3,0.1-0.4,0.2l-2.1,2.2
							c-0.1,0.1-0.2,0.4-0.2,0.6v2.7c0,0.4,0.3,0.8,0.6,0.8h4.1c0.4,0,0.6-0.3,0.6-0.8v-2.7c0-0.2-0.1-0.4-0.2-0.6l-2.1-2.2
							C96.1,132.4,95.9,132.4,95.8,132.4L95.8,132.4z"/>
					</g>
					<g>
						<path style="fill:none;stroke:#2C4359;stroke-linecap:round;stroke-miterlimit:10;" d="M103.8,137.4l2.4-1.5
							c0.3-0.2,0.3-0.4,0-0.6l-2.4-1.5"/>
						<path style="fill:none;stroke:#2C4359;stroke-linecap:round;stroke-miterlimit:10;" d="M87.7,137.4l-2.4-1.5
							c-0.3-0.2-0.3-0.4,0-0.6l2.4-1.5"/>
					</g>
				</g>
				<g>
					<g>
						<path style="fill:#F2F2F2;" d="M346.9,140.9H116.6c-1.4,0-2.6-1.2-2.6-2.6v-5.4c0-1.4,1.2-2.6,2.6-2.6h230.3
							c1.4,0,2.6,1.2,2.6,2.6v5.4C349.5,139.7,348.3,140.9,346.9,140.9z"/>
					</g>
					<rect x="193" y="134" style="fill:#C0C7D0;" width="77.6" height="3.2"/>
					<g>
						<path style="fill:none;stroke:#C0C7D0;stroke-miterlimit:10;" d="M122.3,134c0.9,0.9,0.9,2.3,0,3.2c-0.9,0.9-2.3,0.9-3.2,0
							c-0.9-0.9-0.9-2.3,0-3.2C120,133.1,121.4,133.1,122.3,134z"/>
						
							<line style="fill:none;stroke:#C0C7D0;stroke-linecap:round;stroke-miterlimit:10;" x1="122.3" y1="137.2" x2="123.6" y2="138.6"/>
					</g>
					<g>
						<path style="fill:none;stroke:#C0C7D0;stroke-linecap:round;stroke-miterlimit:10;" d="M346,135.6c0,1.3-1,2.3-2.3,2.3
							s-2.3-1-2.3-2.3c0-1.3,1-2.3,2.3-2.3"/>
						<polygon style="fill:none;stroke:#C0C7D0;stroke-linecap:round;stroke-linejoin:round;stroke-miterlimit:10;" points="
							343.7,132.7 344.9,133.5 343.7,134.3 						"/>
					</g>
				</g>
				<polygon style="fill:none;stroke:#2C4359;stroke-linecap:round;stroke-linejoin:round;stroke-miterlimit:10;" points="
					359.3,132.4 360.1,134.8 362.7,134.8 360.6,136.3 361.4,138.8 359.3,137.3 357.2,138.8 358,136.3 355.9,134.8 358.5,134.8 				
					"/>
				<g>
					
						<line style="fill:none;stroke:#2C4359;stroke-linecap:round;stroke-linejoin:round;stroke-miterlimit:10;" x1="368.1" y1="132.9" x2="376.6" y2="132.9"/>
					
						<line style="fill:none;stroke:#2C4359;stroke-linecap:round;stroke-linejoin:round;stroke-miterlimit:10;" x1="368.1" y1="135.6" x2="376.6" y2="135.6"/>
					
						<line style="fill:none;stroke:#2C4359;stroke-linecap:round;stroke-linejoin:round;stroke-miterlimit:10;" x1="368.1" y1="138.3" x2="376.6" y2="138.3"/>
				</g>
			</g>
			<polyline style="fill:none;stroke:#2C4359;stroke-width:0.75;stroke-miterlimit:10;" points="382.1,119.2 382.1,314.4 
				77.6,314.4 			"/>
			<g>
				<rect x="77.6" y="119.2" style="fill:#2C4359;" width="304.5" height="7.8"/>
				<g>
					<circle style="fill:#F4E45C;" cx="83.7" cy="123.1" r="1.8"/>
					<circle style="fill:#517FE6;" cx="88.8" cy="123.1" r="1.8"/>
					<path style="fill:#C349B9;" d="M95.6,123.1c0,1-0.8,1.8-1.8,1.8c-1,0-1.8-0.8-1.8-1.8c0-1,0.8-1.8,1.8-1.8
						C94.8,121.3,95.6,122.1,95.6,123.1z"/>
				</g>
			</g>
		</g>
		<g>
			<rect x="253.4" y="290.9" style="fill:#4C25D3;" width="105.3" height="11.9"/>
			<g>
				<g>
					<circle style="fill:#4C25D3;" cx="114.7" cy="166.3" r="13.9"/>
					<g>
						<rect x="135.5" y="160.5" style="fill:#B8A8ED;" width="54.2" height="4.7"/>
						<rect x="135.5" y="167.4" style="fill:#B8A8ED;" width="39.9" height="4.7"/>
					</g>
				</g>
				<g>
					<rect x="263.8" y="160.5" style="fill:#C0C7D0;" width="27.1" height="4.7"/>
					<rect x="297.7" y="160.5" style="fill:#C0C7D0;" width="27.1" height="4.7"/>
				</g>
				<line style="fill:none;stroke:#2C4359;stroke-miterlimit:10;" x1="101.3" y1="185.4" x2="358.4" y2="185.4"/>
			</g>
			<g>
				<rect x="101.3" y="245" style="fill:#B8A8ED;" width="88.4" height="7.1"/>
				<g>
					<rect x="101.3" y="258.9" style="fill:#C0C7D0;" width="123" height="3.1"/>
					<rect x="101.3" y="265" style="fill:#C0C7D0;" width="112.2" height="3.1"/>
					<rect x="101.3" y="271.1" style="fill:#C0C7D0;" width="103.1" height="3.1"/>
					<rect x="101.3" y="277.2" style="fill:#C0C7D0;" width="123" height="3.1"/>
				</g>
			</g>
			<g>
				<g>
					<g style="opacity:0.2;">
						<path d="M139,303.8h-30.7c-3.3,0-5.9-2.7-5.9-5.9v0c0-3.3,2.7-5.9,5.9-5.9H139c3.3,0,5.9,2.7,5.9,5.9v0
							C144.9,301.2,142.3,303.8,139,303.8z"/>
					</g>
					<g>
						<path style="fill:#F4E45C;" d="M138,302.8h-30.7c-3.3,0-5.9-2.7-5.9-5.9v0c0-3.3,2.7-5.9,5.9-5.9H138c3.3,0,5.9,2.7,5.9,5.9v0
							C143.9,300.2,141.3,302.8,138,302.8z"/>
					</g>
				</g>
				<g>
					<g style="opacity:0.2;">
						<path d="M188,303.8h-30.7c-3.3,0-5.9-2.7-5.9-5.9v0c0-3.3,2.7-5.9,5.9-5.9H188c3.3,0,5.9,2.7,5.9,5.9v0
							C194,301.2,191.3,303.8,188,303.8z"/>
					</g>
					<g>
						<path style="fill:#2C4359;" d="M187,302.8h-30.7c-3.3,0-5.9-2.7-5.9-5.9v0c0-3.3,2.7-5.9,5.9-5.9H187c3.3,0,5.9,2.7,5.9,5.9v0
							C193,300.2,190.3,302.8,187,302.8z"/>
					</g>
				</g>
			</g>
			<g>
				<g>
					<rect x="101.3" y="197.2" style="fill:#4C25D3;" width="18" height="18"/>
					<line style="fill:none;stroke:#F2F2F2;stroke-width:0.5;stroke-miterlimit:10;" x1="101.3" y1="197.2" x2="119.3" y2="215.1"/>
					<line style="fill:none;stroke:#F2F2F2;stroke-width:0.5;stroke-miterlimit:10;" x1="119.3" y1="197.2" x2="101.3" y2="215.1"/>
				</g>
				<g>
					<rect x="126.5" y="197.2" style="fill:#4C25D3;" width="18" height="18"/>
					<line style="fill:none;stroke:#F2F2F2;stroke-width:0.5;stroke-miterlimit:10;" x1="126.5" y1="197.2" x2="144.4" y2="215.1"/>
					<line style="fill:none;stroke:#F2F2F2;stroke-width:0.5;stroke-miterlimit:10;" x1="144.4" y1="197.2" x2="126.5" y2="215.1"/>
				</g>
				<g>
					<rect x="151.6" y="197.2" style="fill:#4C25D3;" width="18" height="18"/>
					<line style="fill:none;stroke:#F2F2F2;stroke-width:0.5;stroke-miterlimit:10;" x1="151.6" y1="197.2" x2="169.6" y2="215.1"/>
					<line style="fill:none;stroke:#F2F2F2;stroke-width:0.5;stroke-miterlimit:10;" x1="169.6" y1="197.2" x2="151.6" y2="215.1"/>
				</g>
			</g>
		</g>
		<g>
			<g style="opacity:0.2;">
				
					<rect x="144.9" y="182.7" transform="matrix(1.592011e-02 -0.9999 0.9999 1.592011e-02 -78.924 378.4854)" width="15.8" height="93.4"/>
			</g>
			<g>
				
					<rect x="142.9" y="181.7" transform="matrix(1.592011e-02 -0.9999 0.9999 1.592011e-02 -79.8923 375.5016)" style="fill:#4C25D3;" width="15.8" height="93.4"/>
			</g>
		</g>
		<g>
			<g>
				<g>
					<line style="fill:none;stroke:#C0C7D0;stroke-linecap:round;stroke-miterlimit:10;" x1="297.3" y1="11.9" x2="297.3" y2="90"/>
					<path style="fill:#C0C7D0;" d="M302,107.4c-0.7,0-1.3,0.6-1.3,1.3c0.1,1.6-1.2,3.2-2.9,3.5c-0.4,0.1-0.8,0.1-1.3,0
						c-0.4-0.1-0.8-0.2-1.1-0.4c-0.7-0.4-1.3-1.1-1.6-1.9c-0.3-0.8-0.3-1.7,0-2.5c1.9-3.7,5.5-6.1,5.5-9.8c2.7-0.9,4.6-3.5,4.6-6.4
						c0-3.8-3.1-6.8-6.8-6.8c-3.8,0-6.8,3.1-6.8,6.8c0,2.9,1.8,5.4,4.3,6.3c-0.2,2.6-3.3,5-4.6,8.5c-0.6,1.7-0.5,3.5,0.2,5.1
						c0.6,1.6,1.8,2.9,3.3,3.6c1.5,0.8,3.1,0.9,4.7,0.6c1.5-0.4,2.9-1.2,3.8-2.5c0.9-1.2,1.3-2.7,1.2-4.1l0-0.1
						C303.3,107.9,302.7,107.4,302,107.4z M297.3,88.3c1.6,0,2.8,1.3,2.8,2.8c0,1-0.5,1.8-1.2,2.3c-0.5-0.4-1.1-0.7-1.8-0.6
						c-0.5,0.1-1,0.3-1.4,0.6c-0.7-0.5-1.2-1.3-1.2-2.3C294.5,89.6,295.8,88.3,297.3,88.3z"/>
				</g>
				<g>
					<g>
						<g style="opacity:0.2;">
							
								<rect x="219.9" y="184.9" transform="matrix(0.9907 -0.1362 0.1362 0.9907 -29.3238 44.0041)" width="174.3" height="102.8"/>
							<polygon points="348.3,215.1 304.4,273.1 266.4,244.3 227.2,295.9 227.7,299.2 400.4,275.4 397.2,252.2 							"/>
							<path d="M383,178.1l12.9,94l-164.8,22.6l-12.9-94L383,178.1 M386.4,173.6l-172.7,23.7l14,101.9l172.7-23.7L386.4,173.6
								L386.4,173.6z"/>
							<ellipse transform="matrix(0.6267 -0.7793 0.7793 0.6267 -58.4264 312.2449)" cx="296.7" cy="217.1" rx="14.5" ry="14.5"/>
						</g>
						<g>
							<g>
								
									<rect x="209.9" y="167.9" transform="matrix(0.9907 -0.1362 0.1362 0.9907 -27.1023 42.4842)" style="fill:#B8A8ED;" width="174.3" height="102.8"/>
								<polygon style="fill:#4C25D3;" points="338.3,198.1 294.4,256.1 256.4,227.3 217.2,278.9 217.7,282.2 390.4,258.4 
									387.2,235.2 								"/>
								<g>
									<path style="fill:#4C25D3;" d="M373,161.1l12.9,94l-164.8,22.6l-12.9-94L373,161.1 M376.4,156.6l-172.7,23.7l14,101.9
										l172.7-23.7L376.4,156.6L376.4,156.6z"/>
								</g>
								<g>
									
										<ellipse transform="matrix(0.6267 -0.7793 0.7793 0.6267 -48.912 298.1063)" style="fill:#F2F2F2;" cx="286.7" cy="200.1" rx="14.5" ry="14.5"/>
								</g>
							</g>
						</g>
					</g>
					<polyline style="fill:none;stroke:#C0C7D0;stroke-linecap:round;stroke-linejoin:round;stroke-miterlimit:10;" points="
						214.9,178.8 207.1,205.2 216.7,178.5 					"/>
					<polyline style="fill:none;stroke:#C0C7D0;stroke-linecap:round;stroke-linejoin:round;stroke-miterlimit:10;" points="
						359.6,158.5 380,183 357.8,158.2 					"/>
					<path style="fill:none;stroke:#C0C7D0;stroke-linecap:round;stroke-linejoin:round;stroke-miterlimit:10;" d="M357.8,158.2
						l-57.7-44.7c-1.4-1.9-4.2-2-5.7-0.1l-77.8,65.1"/>
				</g>
			</g>
			<g>
				
					<ellipse transform="matrix(0.7071 -0.7071 0.7071 0.7071 76.1475 207.713)" style="fill:none;stroke:#C0C7D0;stroke-linecap:round;stroke-miterlimit:10;" cx="288.8" cy="11.9" rx="8.5" ry="8.5"/>
				<circle style="fill:none;stroke:#C0C7D0;stroke-linecap:round;stroke-miterlimit:10;" cx="288.8" cy="11.9" r="3.1"/>
			</g>
			<g>
				<g>
					<path style="fill:#2C4359;" d="M353.1,277c-3.3,14.9-2,34,5.2,45.1c5.7,8.8,15.8,11.5,24.9,18.5l-0.4,4.4l4-4.8
						c0,0-5-5-19.6-20c-3.6-3.7-1-18.2-0.1-21.9c4.5-6,0-12.3-3-21.3H353.1z"/>
					<path style="fill:#517FE6;" d="M383.2,340.5l-0.4,4.4l4-4.8l-1.7-1.7C385,338.5,385.3,340.3,383.2,340.5z"/>
				</g>
				<g>
					<path style="fill:#415669;" d="M348.9,277c-9.5,18.8-9.2,30.9,4.7,74.9l-4.4,2.7h6.7c0,0-0.3-46.5,2.4-57.1
						c4.5-6,4.6-11.6,1.6-20.5H348.9z"/>
					<path style="fill:#517FE6;" d="M349.1,354.6h6.7v-2.7c0,0-1.4,0.9-2.3,0L349.1,354.6z"/>
				</g>
				<path style="fill:#F2F2F2;" d="M359.2,233.6c-1.7,5.1-6.4,7.6-8.9,7.2c-2.5-0.5-3.7-4.7-2.9-9.4c0.9-4.7,3.6-7.4,6.1-7.7
					C357.1,223.2,361.6,226.4,359.2,233.6z"/>
				<rect x="353.5" y="235" style="fill:#F2F2F2;" width="4.6" height="11.6"/>
				<path style="fill:#517FE6;" d="M354.5,243.9c-6.1,1.1-10.2,11.1-10.8,14.7c-0.4,2.1-0.1,4.2,2.2,8.3c3.3,5.7,3,10.1,3,10.1h15.2
					c0-4.6,2.9-9.7,4.7-16.8C370.5,253.1,364.8,242,354.5,243.9z"/>
				<g>
					<path style="fill:#628CE9;" d="M359.7,244.1c0,0,8.8,1.1,12.5-0.2c8.6-3.1,12.3-10.4,12.6-18h2.3c0,0,3.1,22.4-18.1,30.5
						L359.7,244.1z"/>
					<path style="fill:#F2F2F2;" d="M384.7,225.8c-1.5-1.7-0.6-3.1-1.2-4.5c-0.6-1.3,0.1-2.9,1.8,0.8l-0.7-5.1c0,0,2,1,2.4,8.8
						H384.7z"/>
				</g>
				<g>
					<path style="fill:#628CE9;" d="M354.1,245.1c4.6,0.9,4,9.1-1.2,13.9c-4.9,4.5-18.8,8.4-37.4,10.9l-0.6-2c0,0,10.4-1.9,19.5-7.4
						C343.4,254.8,347.5,243.8,354.1,245.1z"/>
					<path style="fill:#F2F2F2;" d="M314.8,267.8c-2-0.9-3.1,0.3-4.5,0.1c-1.4-0.2-2.1,0.8,1.8,1.3l-5.3,0.8c0,0,1.3,1.5,8.6-0.1
						L314.8,267.8z"/>
				</g>
				<path style="fill:#F4E45C;" d="M348.2,224.3c-2.3,4.1,5.3,3.1,5.3,7.1c0,4-8.4,4.8-10,10c-1.8,6,10.4,4.4,8.6,10.6
					c-2.7,9.1-20.6,9.9-13.8,19.6c5,7,17.1,3,15.7,14.5c-1.3,11.2,19.1,8.9,20.8-0.2c1.2-6.1-10.2-9.8-3.8-14.4
					c7.8-5.6,17.7-13.2,9.2-19.6c-4.3-3.2-15.8-5.2-17-10.4c-1.2-5.2,5.6-13.1-2.5-18.4C352.5,217.6,348.2,224.3,348.2,224.3z"/>
			</g>
			<g>
				<g>
					<path style="fill:#2C4359;" d="M143.6,103c0,0,4,16.2,12.5,16.2c19.4,0,25-7.4,32.7-6.9c4.1,0.3,14.4,6.9,14.4,6.9h5.8
						l-4.1-2.5c0,0-11.2-14.6-18.7-15.5c-9.5-1.1-22,8.3-28.8,1.9H143.6z"/>
					<path style="fill:#517FE6;" d="M203.2,119.2l-1.3-0.8c0,0,2.3,0.1,3-1.7l4.1,2.5H203.2z"/>
				</g>
				<polyline style="fill:none;stroke:#C0C7D0;stroke-linecap:round;stroke-miterlimit:10;" points="284.4,4.6 194.3,61.5 
					181.4,73.8 181.4,116.6 				"/>
				<g>
					<path style="fill:#C0C7D0;" d="M179.1,75.5c0.8-1.4,2.7-4,3.6-2.3c0.6,1.1,0.3,3.1-0.2,3.3c-0.5,0.2-1.9,0.3-1.9,0.3
						L179.1,75.5z"/>
					<path style="fill:#517FE6;" d="M141.2,72.9c7.4-4.2,19.3,9.2,23,9.9c5.9,1.1,14.2-6.6,15-7.2l1.5,1.4c0,0-9.1,13.1-17.8,13.4
						C154.1,90.5,131.7,78.2,141.2,72.9z"/>
					<path style="fill:#F2F2F2;" d="M179.1,75.5c0.3-1.4,0.8-1.9,1.8-2.4c1.4-0.8,1.1-1.5,1.6-1.5c0.5,0,1,1.4-0.2,1.8
						c0,0,0.1,2.4-2,3L179.1,75.5z"/>
					<path style="fill:#F2F2F2;" d="M182.7,73.3c0.1,0.5-0.5,0.4-1.1,0.4c-0.7,0-1.5-0.1-1.4,0.8c0.2,1.5,0,2.4,0.7,2.4
						c0.7,0,1.2,0.2,1.7-0.1C183.1,76.6,183.4,74.4,182.7,73.3z"/>
				</g>
				<g>
					<g>
						<path style="fill:#415669;" d="M158.2,98.8c9.5,18.8,16.9,38.1,34.6,54.8l5-1.4l-4.5,5c0,0-36.9-21.6-46.9-34.8
							c-4.5-6-5.7-10.4-2.7-19.3L158.2,98.8z"/>
					</g>
					<path style="fill:#517FE6;" d="M193.3,157.1l4.5-5l-5,1.4c0,0,0.3,1.7-1.6,2.3L193.3,157.1z"/>
				</g>
				<path style="fill:#F2F2F2;" d="M137.1,63.6c2.7,4.1,7.5,5.1,9.6,4.1c2.1-1,2.1-5,0.2-9s-5-5.6-7.2-5.3
					C136.4,54,133.3,57.9,137.1,63.6z"/>
				<polygon style="fill:#F2F2F2;" points="138.9,75.5 145.4,73.7 142.5,63.5 135.4,59.4 				"/>
				<path style="fill:#628CE9;" d="M143.8,71.5c-6.9,0.9-12.9,2.8-9.9,26c2.8,21.8,9.9,21.7,9.9,21.7s21.8,1.5,26.2-14.9
					c0,0-9.4-6.5-12.3-18.3C154.8,74.2,149.1,70.8,143.8,71.5z"/>
				<g>
					<path style="fill:#628CE9;" d="M143.8,71.5l47.8-10l1.1,2.6c0,0-33,21.4-44.5,22.1C136.8,86.9,135.5,74,143.8,71.5z"/>
					<path style="fill:#F2F2F2;" d="M191.7,61.5c0,0,2-2.7,3.1-2.5c1.1,0.2,2.7,2.8,2,3.8c-0.6,1-4,1.3-4,1.3L191.7,61.5z"/>
				</g>
				<path style="fill:#2C4359;" d="M137.8,70.4c0,0,3.6-1.3,3.4-5.4c0,0-1.7,0.9-2.2-2.8c-0.2-1.7,1.4-2,2.2-0.2
					c1.1,0.4,2.5-0.3,2.3-2.3c-0.4-3.1,3.6-2.6,3.7-6.3c0.2-4.8-9.4-11.1-11.2-6.7c-1.5,3.6-1,5.7-5.6,5.8
					C122,52.6,130.5,72,137.8,70.4z"/>
			</g>
		</g>
		<g>
			<g>
				<g>
					<path style="fill:#2C4359;" d="M110,277c3.3,14.9,2,34-5.2,45.1c-5.7,8.8-15.8,11.5-24.9,18.5l0.4,4.4l-4-4.8c0,0,5-5,19.6-20
						c3.6-3.7,1-18.2,0.1-21.9c-4.5-6,0-12.3,3-21.3H110z"/>
					<path style="fill:#517FE6;" d="M79.9,340.5l0.4,4.4l-4-4.8l1.7-1.7C78,338.5,77.8,340.3,79.9,340.5z"/>
				</g>
				<g>
					<path style="fill:#415669;" d="M114.1,277c9.5,18.8,9.2,30.9-4.7,74.9l4.4,2.7h-6.7c0,0,0.3-46.5-2.4-57.1
						c-4.5-6-4.6-11.6-1.6-20.5H114.1z"/>
					<path style="fill:#517FE6;" d="M113.9,354.6h-6.7v-2.7c0,0,1.4,0.9,2.3,0L113.9,354.6z"/>
				</g>
				<path style="fill:#F2F2F2;" d="M103.8,233.6c1.7,5.1,6.4,7.6,8.9,7.2c2.5-0.5,3.7-4.7,2.9-9.4c-0.9-4.7-3.6-7.4-6.1-7.7
					C105.9,223.2,101.5,226.4,103.8,233.6z"/>
				
					<rect x="101.3" y="235" transform="matrix(-1 -1.224647e-16 1.224647e-16 -1 210.8304 481.603)" style="fill:#F2F2F2;" width="8.1" height="11.6"/>
				<g>
					<path style="fill:#628CE9;" d="M103.4,244.1c0,0-8.8,1.1-12.5-0.2c-8.6-3.1-12.3-10.4-12.6-18H76c0,0-3.1,22.4,18.1,30.5
						L103.4,244.1z"/>
					<path style="fill:#F2F2F2;" d="M78.3,225.8c1.5-1.7,0.6-3.1,1.2-4.5c0.6-1.3-0.1-2.9-1.8,0.8l0-5.1c0,0-1.3,1-1.7,8.8H78.3z"/>
				</g>
			</g>
			<path style="fill:#628CE9;" d="M112.9,245.7c-5.7-2.8-8-1.6-17.5-1.2S94,267.7,94,293.3c0,0,8.2,4.8,28.6,0
				C122.6,293.3,121.8,250.2,112.9,245.7z"/>
			<path style="fill:#C349B9;" d="M108.9,236.8c1.4,2.5-6.7,4.6-8.8,2.1c-2.1-2.5-9.4-4.4-4.1-14.1c2.3-4.2,3.2-10.4,6.6-11
				c8.2-1.4,12.2,4.9,12,8.6c-0.3,5.1-2.3,8.2-4.3,9.3C108.9,232.4,106.7,232.9,108.9,236.8z"/>
			<g>
				<path style="fill:#628CE9;" d="M108.2,244.1c9.8,0,17.1,5.3,24.2,6c8.3,0.8,16.6-4.9,18.3-9.3l3.7-0.6c0,0-5.7,12-21.7,17.2
					c-8,2.6-17.9,3-23.8,0.3C103,254.9,101.3,244.2,108.2,244.1z"/>
				<path style="fill:#F2F2F2;" d="M150.7,240.8c-1.2-1.8,0.6-3.6,0.9-4.9c0.2-1.3,0.9-2.3,1.6-2.4c1.1-0.2,0.8,1.3,0.4,2.8
					c0,0.2,0.1,0.3,0.3,0.2c0.9-0.4,3.1-1.3,4.8-1.1c0.6,0.1,0.9,0.7-1.4,1.9c-2.3,1.2-2.8,2.9-2.8,2.9L150.7,240.8z"/>
			</g>
		</g>
	</g>
	<g>
		<g style="opacity:0.2;">
			<rect x="150.8" y="310.2" width="111.3" height="29.6"/>
			<rect x="158.2" y="316" width="18" height="18"/>
			<line style="fill:none;stroke:#000000;stroke-width:0.5;stroke-miterlimit:10;" x1="158.2" y1="316" x2="176.2" y2="334"/>
			<line style="fill:none;stroke:#000000;stroke-width:0.5;stroke-miterlimit:10;" x1="176.2" y1="316" x2="158.2" y2="334"/>
			<rect x="182.4" y="320" width="67" height="2.1"/>
			<rect x="182.4" y="327.9" width="67" height="2.1"/>
			<rect x="182.4" y="324" width="59.8" height="2.1"/>
		</g>
		<g>
			<g>
				<rect x="149.8" y="309.2" style="fill:#4C25D3;" width="111.3" height="29.6"/>
				<g>
					<g>
						<rect x="157.2" y="315" style="fill:#7051DC;" width="18" height="18"/>
						<line style="fill:none;stroke:#4C25D3;stroke-width:0.5;stroke-miterlimit:10;" x1="157.2" y1="315" x2="175.2" y2="333"/>
						<line style="fill:none;stroke:#4C25D3;stroke-width:0.5;stroke-miterlimit:10;" x1="175.2" y1="315" x2="157.2" y2="333"/>
					</g>
					<rect x="181.4" y="319" style="fill:#7499EB;" width="67" height="2.1"/>
					<rect x="181.4" y="326.9" style="fill:#7499EB;" width="67" height="2.1"/>
					<rect x="181.4" y="323" style="fill:#7499EB;" width="59.8" height="2.1"/>
				</g>
			</g>
		</g>
	</g>
	<g>
		<g style="opacity:0.2;">
			<rect x="132.1" y="323" width="111.3" height="29.6"/>
			<rect x="139.6" y="328.8" width="18" height="18"/>
			<line style="fill:none;stroke:#000000;stroke-width:0.5;stroke-miterlimit:10;" x1="139.6" y1="328.8" x2="157.5" y2="346.7"/>
			<line style="fill:none;stroke:#000000;stroke-width:0.5;stroke-miterlimit:10;" x1="157.5" y1="328.8" x2="139.6" y2="346.7"/>
			<rect x="163.8" y="332.8" width="67" height="2.1"/>
			<rect x="163.8" y="340.7" width="67" height="2.1"/>
			<rect x="163.8" y="336.7" width="59.8" height="2.1"/>
		</g>
		<g>
			<g>
				<rect x="131.1" y="322" style="fill:#517FE6;" width="111.3" height="29.6"/>
				<g>
					<g>
						<rect x="138.6" y="327.8" style="fill:#4C25D3;" width="18" height="18"/>
						
							<line style="fill:none;stroke:#517FE6;stroke-width:0.5;stroke-miterlimit:10;" x1="138.6" y1="327.8" x2="156.5" y2="345.7"/>
						
							<line style="fill:none;stroke:#517FE6;stroke-width:0.5;stroke-miterlimit:10;" x1="156.5" y1="327.8" x2="138.6" y2="345.7"/>
					</g>
					<rect x="162.8" y="331.8" style="fill:#7499EB;" width="67" height="2.1"/>
					<rect x="162.8" y="339.7" style="fill:#7499EB;" width="67" height="2.1"/>
					<rect x="162.8" y="335.7" style="fill:#7499EB;" width="59.8" height="2.1"/>
				</g>
			</g>
		</g>
	</g>
	<circle style="fill:#FFFFFF;stroke:#C0C7D0;stroke-miterlimit:10;" cx="233.5" cy="101.9" r="2.9"/>
	<circle style="fill:#FFFFFF;stroke:#C0C7D0;stroke-miterlimit:10;" cx="223" cy="82.7" r="5.7"/>
	<circle style="fill:#FFFFFF;stroke:#C0C7D0;stroke-miterlimit:10;" cx="251.8" cy="87.7" r="3.3"/>
	<circle style="fill:#FFFFFF;stroke:#C0C7D0;stroke-miterlimit:10;" cx="39.1" cy="68.4" r="4.6"/>
	<circle style="fill:#FFFFFF;stroke:#C0C7D0;stroke-miterlimit:10;" cx="50.5" cy="54" r="4"/>
	<circle style="fill:#FFFFFF;stroke:#C0C7D0;stroke-miterlimit:10;" cx="411.8" cy="147.7" r="3.5"/>
	
		<ellipse transform="matrix(0.7071 -0.7071 0.7071 0.7071 26.4279 350.8543)" style="fill:#FFFFFF;stroke:#C0C7D0;stroke-miterlimit:10;" cx="436.7" cy="143.5" rx="7.6" ry="7.6"/>
</g>
</svg>
